<?xml version="1.0" encoding="UTF-8"?>
<svg id="Layer_1" xmlns="http://www.w3.org/2000/svg" xmlns:xlink="http://www.w3.org/1999/xlink" version="1.1" viewBox="0 0 1320 2000">
  <!-- Generator: Adobe Illustrator 29.1.0, SVG Export Plug-In . SVG Version: 2.1.0 Build 142)  -->
  <defs>
    <style>
      .st0 {
        fill: #404040;
      }

      .st1 {
        fill: url(#linear-gradient1);
      }

      .st2 {
        fill: url(#linear-gradient);
      }

      .st3 {
        fill: #ffe7a1;
      }
    </style>
    <linearGradient id="linear-gradient" x1="72.51" y1="226.34" x2="1314.19" y2="1468.03" gradientUnits="userSpaceOnUse">
      <stop offset="0" stop-color="#000"/>
      <stop offset="1" stop-color="#474747"/>
    </linearGradient>
    <linearGradient id="linear-gradient1" x1="-159.33" y1="458.18" x2="1082.36" y2="1699.86" xlink:href="#linear-gradient"/>
  </defs>
  <g>
    <path class="st3" d="M236.57,1059.3l-6.74-1.98c-46-13.53-99.72-58.47-99.72-140.59,0-92.38,70.23-136.83,126.88-172.5,48.4-39.6,71.93-81.1,71.93-126.85,0-71.54-38.97-127.57-88.73-127.57-19.52,0-31.6,12.25-31.6,23.6s4.08,18.56,13.64,23.34l-3.75,15.9c-21.71,0-34.67-15.95-34.67-42.67,0-20.72,7.95-39.27,22.4-52.25,8.13-7.31,21.03-15.14,40.59-18.34l-46.39-13.6,195.57-173.25v300.87c0,73.5-13.53,118.23-50.68,162.42,19.56,1.16,42.33,4.22,62.46,10.01V245.25c-49.4-.43-117.07-4.56-160.03-11.91,1.09,19.16,5.48,37.42,15.23,64.71l-14.1,8.49c-49.69-54.31-61.72-84.34-58.18-207l.37-12.89,11.63,5.55c54.47,26,129.07,40.31,210.05,40.31,56.6,0,98.69-7.54,128.68-23.06l3.67-1.9,201.68,94.27v576.51l-6.57,1.46c-28.52,6.34-71.69,30.2-101.93,51.1l-100.09,79.83-4.88-2.63c-88.08-47.52-151.82-75.67-216.96-78.98-45.24-2.14-85.12,10.92-112.28,36.81-21.38,20.38-33.15,46.94-33.15,74.78,0,45.9,22.45,78.27,66.74,96.19l8.42,3.41-9.49,18.98ZM240.2,473.01c59.17,0,105.51,63.41,105.51,144.36,0,51.24-25.68,97.1-78.5,140.19l-.83.6c-56,35.26-119.48,75.23-119.48,158.57,0,21.33,4.05,39.83,10.79,55.61-2.38-9.88-3.59-20.44-3.59-31.62,0-32.47,13.62-63.34,38.35-86.93,30.51-29.09,74.79-43.81,124.69-41.43,67.09,3.41,131.53,31.28,219.22,78.35l92.1-73.44c27.38-18.95,69.26-43.15,101.5-52.19V212.52l-184.58-86.28c-32.1,15.51-75.56,23.06-132.66,23.06-77.83,0-150.2-12.96-205.59-36.67-1.73,82.86,4.92,117.42,27.87,150.67-3.08-13.94-4.35-26.41-4.35-40.13v-10.29l10.08,2.07c42.87,8.8,122.38,13.54,175.41,13.54h8.39v520.83l-11.26-4.1c-22.06-8.02-55.92-13.21-86.25-13.21h-19.53l13.44-14.17c43.55-45.91,58.25-87.41,58.25-164.47v-263.57l-144.92,128.39,60.57,17.75-8.08,20.19-6.32-.68c-27.24-2.92-49.03,2.18-63,14.73-4.51,4.06-8.18,8.87-10.93,14.25,9.28-7.36,21.73-11.44,33.7-11.44ZM598.97,817.92l-99.8-45.48V207.26l148.18,74.74v67.56l-1.88,2.31c-8.58,10.56-19.95,20.01-31.15,26.44,11.04,5.51,22.04,13.21,30.57,21.74l2.46,2.46v377.78l-48.38,37.63ZM515.96,761.65l80.73,36.79,33.88-26.35v-362.52c-13.62-12.59-31.16-20.89-42.12-22.72l.62-16.64c8.61-.78,27.36-10.44,41.49-26.69v-51.19l-114.61-57.8v527.12Z"/>
    <path class="st3" d="M429.64,1917.6l-7.37-2.23c-45.97-13.93-99.65-59.1-99.65-140.57,0-92.38,70.23-136.83,126.88-172.5,48.4-39.61,71.93-81.48,71.93-128,0-71.54-38.47-127.57-87.58-127.57-16.09,0-32.74,9.25-32.74,24.74,0,11.12,4.46,18.75,13.64,23.34l-3.76,15.9c-21.71,0-34.67-16.38-34.67-43.82,0-20.15,7.86-38.3,22.13-51.1,8.23-7.38,21.3-15.3,41.11-18.46l-45.38-13.53,194.3-173.3v300.95c0,74.64-13.43,119.23-50.24,161.41,21.1,1.52,43.35,5.44,62.02,10.97v-480.52c-45.84-.51-114.42-5-160.02-12.1,1.1,18.52,5.49,36.54,15.22,63.77l-14.1,8.49c-49.69-54.31-61.72-84.34-58.18-207l.38-13.15,11.76,5.88c51.91,25.95,126.45,40.25,209.91,40.25,55.47,0,82.81-17.94,113.85-51.05l4.63-4.94,17.22,10.33-2.02,6.33c-25.27,79.25-29.31,133.25-29.31,265.96v402.68l69.17,34.08,26.01-22.42v-373.18l-44.74-8.95,13.48-11.24c22.37-18.64,34.68-42.72,34.68-67.82,0-22.88-17.71-35.14-32.57-41.39l-14.57-6.13,13.24-8.63c49.1-32.02,79.6-96.75,79.6-168.93v-2.8l23.65-31.52v25.18c0,78.6,25.59,137.43,74,170.14l8.24,5.57-29.68,31.03v461.63l80.33,51.21,12.56-20.42v-515.21c0-30.98-2.01-41.95-8.96-48.91l-41.41-41.41,77.93-76.6,62.39,34.66c19.13-14.39,75.03-54.38,101.23-50.88l17.32,2.31-12.63,12.08c-75.13,71.86-75.12,93.33-75.11,173.22v3.52s0,528.27,0,528.27h-8.39c-37.72,0-69.61,16.1-189.6,95.72l-4.08,2.71-132.13-67.2-96.04,75.46-4.82-2.53c-85.69-45.1-133.45-68.79-198.76-72.17-45.64-2.17-85.67,10.88-112.71,36.67-21.1,20.13-32.71,46.32-32.71,73.77,0,47.91,21.4,79.36,65.43,96.13l7.98,3.04-8.32,20.78ZM433.85,1329.94c28.54,0,55,14.88,74.5,41.9,19.26,26.68,29.87,63.07,29.87,102.46,0,52.01-25.68,98.24-78.5,141.33l-.83.6c-56,35.26-119.48,75.22-119.48,158.57,0,23.31,4.92,43.26,12.94,60-3.05-11.34-4.59-23.73-4.59-37.15,0-32.08,13.46-62.59,37.91-85.92,30.39-29,74.81-43.69,125.12-41.3,67.43,3.49,118.41,28.19,200.93,71.55l95.91-75.36,132.95,67.62c113.28-75.05,148.21-93.44,186.4-95.58v-515.23c-.01-72.49-.02-102.06,57.14-162.24-17,8.3-39.74,22.42-65.33,42.16l-4.37,3.38-61.04-33.91-56.9,55.94,29.43,29.44c11.88,11.88,13.88,28.35,13.88,60.78v519.96l-24,38.99-102.48-65.33v-477.57l20.79-21.74c-40.87-31.28-60.02-76.04-68.13-119.22-9.95,51.68-35.16,96.51-71.05,124.83,19.5,11.99,30.05,29.48,30.05,50.34,0,25.13-10.04,49.22-28.57,69.21l25.14,5.03v394.63l-40.26,34.7-88.5-43.61v-413.12c0-137.12,6.19-190.25,24.21-251.84-28.73,26.82-59.27,42-111.8,42-81.16,0-151.87-12.57-205.59-36.44-1.71,82.71,4.94,117.22,27.87,150.44-3.06-13.75-4.35-25.98-4.35-38.99v-10.03l9.88,1.77c45.25,8.12,127.34,13.58,175.62,13.58h8.39v520.83l-11.26-4.1c-23.61-8.58-58.27-14.35-86.25-14.35h-20.27l14.33-14.33c42.89-42.89,58.1-85.59,58.1-163.16v-263.48l-143.9,128.34,59.53,17.75-8.07,20.16-6.34-.69c-27.31-2.98-49.18,2.12-63.26,14.76-4.23,3.79-7.7,8.23-10.36,13.16,9.41-7.46,22.08-11.52,34.54-11.52Z"/>
  </g>
  <g>
    <path class="st0" d="M138.51,916.72c0-85.69,61.7-126.83,123.4-165.67,43.42-35.42,75.41-78.84,75.41-133.68,0-78.84-44.56-135.97-97.12-135.97-23.99,0-39.99,16-39.99,31.99s6.86,25.14,18.28,30.85c-16,0-26.28-11.42-26.28-34.28,0-34.28,25.14-69.7,89.12-62.84l2.29-5.71-66.27-19.42,170.24-150.82v282.22c0,83.41-18.28,125.68-60.56,170.24,28.56,0,63.98,4.57,89.12,13.71V236.89c-51.42,0-132.54-4.57-177.1-13.71,0,25.14,4.57,45.7,16,77.7-49.13-53.7-59.41-82.27-55.99-201.09,50.27,23.99,123.4,41.13,213.66,41.13,54.84,0,99.4-6.86,132.54-23.99l193.09,90.26v564.43c-30.85,6.86-75.41,31.99-105.12,52.56l-95.98,76.55c-86.84-46.85-153.1-76.55-220.52-79.98-95.98-4.57-154.25,55.99-154.25,119.97,0,49.13,23.99,84.55,71.98,103.98l-2.29,4.57c-38.85-11.43-93.69-51.42-93.69-132.54ZM597.83,808.18l41.13-31.99v-370.19c-14.85-14.85-35.42-25.14-49.13-27.42,12.57-1.14,34.28-13.71,49.13-31.99v-59.41l-131.39-66.27v546.15l90.26,41.13Z"/>
    <path class="st0" d="M331.01,1774.8c0-85.69,61.7-126.83,123.4-165.67,43.42-35.42,75.41-78.84,75.41-134.83,0-78.84-43.42-135.97-95.98-135.97-25.14,0-41.13,15.99-41.13,33.13,0,14.85,6.86,25.14,18.28,30.85-16,0-26.28-11.43-26.28-35.42,0-34.28,26.28-68.55,89.12-61.7l2.29-5.71-65.13-19.42,169.1-150.82v282.22c0,82.27-17.14,125.68-60.56,169.1,28.56,0,63.98,5.71,89.12,14.86v-500.45c-51.42,0-132.54-5.71-177.1-13.71,0,23.99,4.57,44.56,16,76.55-49.13-53.7-59.41-82.27-55.99-201.09,50.27,25.14,123.4,41.13,213.66,41.13,55.99,0,85.69-17.14,119.97-53.7l5.71,3.43c-25.14,78.84-29.71,133.68-29.71,268.51v407.9l78.84,38.85,33.14-28.56v-383.91l-34.28-6.85c27.42-22.85,37.7-50.27,37.7-74.27s-15.99-39.99-37.7-49.13c52.56-34.28,83.41-101.69,83.41-175.96l6.86-9.14c0,94.83,35.42,148.54,77.7,177.1l-25.14,26.28v469.6l91.41,58.27,18.28-29.71v-517.59c0-33.14-2.28-45.7-11.42-54.84l-35.42-35.42,67.41-66.27,61.7,34.28c39.99-30.85,82.27-54.84,99.4-52.56-78.84,75.41-77.7,99.4-77.7,182.81v519.87c-39.99,0-71.98,15.99-194.24,97.12l-132.54-67.41-95.97,75.41c-86.84-45.7-135.97-69.7-202.24-73.12-97.12-4.57-154.25,55.99-154.25,118.83,0,50.27,22.85,85.69,70.84,103.98l-2.29,5.71c-37.71-11.42-93.69-51.42-93.69-132.54Z"/>
  </g>
  <g>
    <path class="st2" d="M138.51,916.72c0-85.69,61.7-126.83,123.4-165.67,43.42-35.42,75.41-78.84,75.41-133.68,0-78.84-44.56-135.97-97.12-135.97-23.99,0-39.99,16-39.99,31.99s6.86,25.14,18.28,30.85c-16,0-26.28-11.42-26.28-34.28,0-34.28,25.14-69.7,89.12-62.84l2.29-5.71-66.27-19.42,170.24-150.82v282.22c0,83.41-18.28,125.68-60.56,170.24,28.56,0,63.98,4.57,89.12,13.71V236.89c-51.42,0-132.54-4.57-177.1-13.71,0,25.14,4.57,45.7,16,77.7-49.13-53.7-59.41-82.27-55.99-201.09,50.27,23.99,123.4,41.13,213.66,41.13,54.84,0,99.4-6.86,132.54-23.99l193.09,90.26v564.43c-30.85,6.86-75.41,31.99-105.12,52.56l-95.98,76.55c-86.84-46.85-153.1-76.55-220.52-79.98-95.98-4.57-154.25,55.99-154.25,119.97,0,49.13,23.99,84.55,71.98,103.98l-2.29,4.57c-38.85-11.43-93.69-51.42-93.69-132.54ZM597.83,808.18l41.13-31.99v-370.19c-14.85-14.85-35.42-25.14-49.13-27.42,12.57-1.14,34.28-13.71,49.13-31.99v-59.41l-131.39-66.27v546.15l90.26,41.13Z"/>
    <path class="st1" d="M331.01,1774.8c0-85.69,61.7-126.83,123.4-165.67,43.42-35.42,75.41-78.84,75.41-134.83,0-78.84-43.42-135.97-95.98-135.97-25.14,0-41.13,15.99-41.13,33.13,0,14.85,6.86,25.14,18.28,30.85-16,0-26.28-11.43-26.28-35.42,0-34.28,26.28-68.55,89.12-61.7l2.29-5.71-65.13-19.42,169.1-150.82v282.22c0,82.27-17.14,125.68-60.56,169.1,28.56,0,63.98,5.71,89.12,14.86v-500.45c-51.42,0-132.54-5.71-177.1-13.71,0,23.99,4.57,44.56,16,76.55-49.13-53.7-59.41-82.27-55.99-201.09,50.27,25.14,123.4,41.13,213.66,41.13,55.99,0,85.69-17.14,119.97-53.7l5.71,3.43c-25.14,78.84-29.71,133.68-29.71,268.51v407.9l78.84,38.85,33.14-28.56v-383.91l-34.28-6.85c27.42-22.85,37.7-50.27,37.7-74.27s-15.99-39.99-37.7-49.13c52.56-34.28,83.41-101.69,83.41-175.96l6.86-9.14c0,94.83,35.42,148.54,77.7,177.1l-25.14,26.28v469.6l91.41,58.27,18.28-29.71v-517.59c0-33.14-2.28-45.7-11.42-54.84l-35.42-35.42,67.41-66.27,61.7,34.28c39.99-30.85,82.27-54.84,99.4-52.56-78.84,75.41-77.7,99.4-77.7,182.81v519.87c-39.99,0-71.98,15.99-194.24,97.12l-132.54-67.41-95.97,75.41c-86.84-45.7-135.97-69.7-202.24-73.12-97.12-4.57-154.25,55.99-154.25,118.83,0,50.27,22.85,85.69,70.84,103.98l-2.29,5.71c-37.71-11.42-93.69-51.42-93.69-132.54Z"/>
  </g>
</svg>